<svg width="450" height="265" viewBox="0 0 450 265" fill="none" xmlns="http://www.w3.org/2000/svg">
<g opacity="0.35" clip-path="url(#clip0_374_383)">
<path d="M435.662 224.456C431.352 239.429 418.769 249.91 405.643 258.814C403.81 260.057 401.977 261.272 400.143 262.459C400.131 262.464 400.118 262.476 400.105 262.481C400.017 262.538 399.929 262.595 399.846 262.652C399.468 262.896 399.089 263.141 398.714 263.382L398.92 263.475C398.92 263.475 399.122 263.583 398.901 263.492C398.835 263.465 398.766 263.44 398.7 263.412C391.075 260.332 383.314 257.025 377.47 251.255C371.408 245.263 367.865 235.865 371.148 227.994C371.579 226.963 372.124 225.983 372.773 225.073C373.039 224.691 373.326 224.326 373.624 223.968C375.435 221.754 377.802 220.064 380.481 219.071C383.16 218.077 386.055 217.816 388.868 218.315C391.682 218.813 394.311 220.053 396.488 221.907C398.664 223.761 400.308 226.162 401.25 228.863C402.214 219.87 394.811 212.338 387.686 206.78C380.558 201.225 372.458 195.176 371.08 186.233C370.311 181.258 372.038 176.436 375.185 172.566C375.283 172.448 375.38 172.331 375.48 172.216C379.311 167.708 384.699 164.813 390.568 164.11C401.498 162.972 412.115 168.766 420.055 176.377C432.835 188.623 440.561 207.432 435.662 224.456Z" fill="#F2F2F2"/>
<path d="M415.118 204.871C417.215 208.14 418.826 211.697 419.898 215.431C420.805 218.769 421.209 222.223 421.096 225.68C420.803 232.794 418.809 239.733 415.282 245.915C412.624 250.604 409.386 254.938 405.643 258.814C403.81 260.057 401.977 261.272 400.143 262.459C400.131 262.464 400.118 262.476 400.105 262.481C400.017 262.538 399.929 262.595 399.846 262.652C399.468 262.896 399.089 263.141 398.714 263.382C398.714 263.382 399.123 263.583 398.901 263.492C398.835 263.465 398.766 263.44 398.7 263.412C399.384 257.8 398.714 252.106 396.748 246.807C394.781 241.508 391.575 236.758 387.399 232.955C383.212 229.21 378.2 226.509 372.773 225.073C373.039 224.691 373.326 224.326 373.625 223.968C375.721 224.556 377.761 225.329 379.721 226.278C386.728 229.648 392.465 235.188 396.083 242.077C399.33 248.333 400.728 255.387 400.112 262.411C400.425 262.127 400.739 261.836 401.043 261.548C406.837 256.138 411.984 249.928 415.467 242.76C418.489 236.691 419.974 229.97 419.792 223.19C419.508 215.798 416.567 208.95 412.308 202.989C407.641 196.629 402.128 190.939 395.921 186.075C389.667 181.058 382.822 176.826 375.541 173.473C375.377 173.397 375.248 173.26 375.182 173.091C375.116 172.922 375.117 172.734 375.185 172.566C375.234 172.415 375.34 172.289 375.48 172.216C375.553 172.185 375.631 172.17 375.71 172.174C375.788 172.177 375.865 172.198 375.935 172.235C376.834 172.65 377.726 173.07 378.612 173.508C385.988 177.16 392.883 181.715 399.138 187.069C405.18 192.228 410.868 198.121 415.118 204.871Z" fill="white"/>
<path d="M260.979 135.675C261.87 135.351 262.681 134.835 263.352 134.164C264.023 133.492 264.539 132.682 264.864 131.789C265.189 130.896 265.314 129.943 265.231 128.996C265.148 128.05 264.859 127.133 264.384 126.31L279.459 108.831L267.575 107.282L255.082 124.118C253.755 125.009 252.8 126.356 252.399 127.905C251.998 129.453 252.178 131.095 252.905 132.52C253.632 133.944 254.855 135.052 256.343 135.634C257.831 136.215 259.48 136.23 260.979 135.675Z" fill="#FFB8B8"/>
<path d="M345.95 139.368C346.575 138.654 347.037 137.811 347.302 136.898C347.567 135.986 347.629 135.026 347.483 134.088C347.338 133.149 346.989 132.253 346.46 131.464C345.932 130.675 345.237 130.011 344.425 129.52L349.217 106.927L338.06 111.308L335.22 132.091C334.486 133.512 334.299 135.153 334.693 136.704C335.087 138.254 336.035 139.606 337.357 140.503C338.68 141.4 340.285 141.78 341.869 141.571C343.453 141.362 344.905 140.578 345.95 139.368Z" fill="#FFB8B8"/>
<path d="M291.956 257.114L284.044 257.113L280.28 226.549L291.958 226.55L291.956 257.114Z" fill="#FFB8B8"/>
<path d="M293.974 264.795L268.462 264.794V264.471C268.462 263.165 268.719 261.872 269.218 260.665C269.717 259.458 270.449 258.362 271.371 257.439C272.293 256.515 273.388 255.783 274.592 255.283C275.797 254.783 277.088 254.526 278.392 254.526L293.974 254.527L293.974 264.795Z" fill="#2F2E41"/>
<path d="M330.678 257.114L322.766 257.113L319.002 226.549L330.679 226.55L330.678 257.114Z" fill="#FFB8B8"/>
<path d="M332.696 264.795L307.184 264.794V264.471C307.184 263.165 307.441 261.872 307.94 260.665C308.439 259.458 309.17 258.362 310.092 257.439C311.015 256.515 312.109 255.783 313.314 255.283C314.519 254.783 315.81 254.526 317.114 254.526L332.696 254.527L332.696 264.795Z" fill="#2F2E41"/>
<path d="M292.78 241.154L281.58 240.705C280.816 240.672 280.096 240.34 279.574 239.779C279.053 239.219 278.773 238.476 278.794 237.71L281.949 134.051L282.155 133.976C301.785 126.865 318.023 127.402 331.801 135.618L331.955 135.71L333.845 236.67C333.852 237.057 333.782 237.441 333.64 237.8C333.497 238.159 333.285 238.486 333.014 238.762C332.744 239.038 332.421 239.257 332.065 239.407C331.709 239.557 331.327 239.634 330.941 239.634H321.497C320.824 239.632 320.173 239.398 319.653 238.97C319.134 238.542 318.778 237.947 318.647 237.286L305.782 171.741C305.737 171.515 305.614 171.311 305.433 171.168C305.252 171.025 305.027 170.951 304.796 170.959C304.566 170.968 304.346 171.058 304.176 171.215C304.007 171.371 303.899 171.583 303.871 171.812L295.779 238.598C295.69 239.303 295.349 239.95 294.818 240.421C294.287 240.892 293.604 241.153 292.895 241.156C292.857 241.156 292.819 241.155 292.78 241.154Z" fill="#2F2E41"/>
<path d="M303.677 43.1445C312.431 43.1445 319.527 36.0371 319.527 27.2697C319.527 18.5023 312.431 11.3949 303.677 11.3949C294.922 11.3949 287.826 18.5023 287.826 27.2697C287.826 36.0371 294.922 43.1445 303.677 43.1445Z" fill="#FFB8B8"/>
<path d="M266.335 123.057C265.785 122.84 265.315 122.459 264.986 121.967L261.923 117.377C261.593 116.88 261.423 116.292 261.437 115.695C261.451 115.097 261.647 114.518 262 114.036L274.347 97.2521L282.083 60.0804C282.527 58.9324 283.194 57.8835 284.043 56.9936C284.893 56.1037 285.91 55.3903 287.035 54.8941C288.161 54.398 289.372 54.1289 290.602 54.1022C291.831 54.0755 293.053 54.2918 294.199 54.7386C295.345 55.1854 296.391 55.854 297.279 56.7062C298.167 57.5584 298.878 58.5774 299.372 59.705C299.866 60.8326 300.133 62.0467 300.158 63.2778C300.183 64.509 299.966 65.733 299.518 66.8799L295.863 90.537C294.754 97.7172 291.079 104.25 285.521 108.919L269.268 122.579C268.955 122.842 268.591 123.036 268.198 123.148C267.806 123.26 267.395 123.288 266.991 123.231C266.766 123.199 266.546 123.141 266.335 123.057Z" fill="#1D564F"/>
<path d="M345.273 124.741C344.717 124.942 344.113 124.968 343.542 124.816L338.214 123.397C337.638 123.242 337.123 122.914 336.739 122.456C336.355 121.999 336.121 121.434 336.068 120.839L334.263 100.07L315.546 67.0487C315.123 65.8928 314.932 64.6647 314.983 63.4345C315.034 62.2044 315.326 60.9964 315.844 59.8796C316.361 58.7628 317.093 57.7591 317.998 56.9259C318.903 56.0926 319.964 55.4462 321.118 55.0235C322.273 54.6008 323.499 54.4101 324.727 54.4624C325.956 54.5146 327.161 54.8088 328.276 55.3281C329.391 55.8474 330.392 56.5816 331.223 57.4888C332.055 58.3959 332.699 59.4582 333.12 60.6149L345.983 80.7918C349.888 86.9151 351.439 94.2504 350.348 101.433L347.159 122.442C347.098 122.846 346.952 123.233 346.732 123.576C346.511 123.92 346.221 124.214 345.88 124.438C345.69 124.563 345.487 124.664 345.273 124.741Z" fill="#1D564F"/>
<path d="M286.339 55.4614C289.062 52.4712 292.42 50.1313 296.166 48.6145C299.912 47.0976 303.95 46.4424 307.983 46.6972C308.248 46.7137 308.512 46.7322 308.775 46.7528C312.597 47.0554 316.31 48.1718 319.667 50.0273C323.024 51.8828 325.946 54.4346 328.239 57.5121C330.57 60.6326 332.209 64.2156 333.047 68.0215C333.884 71.8273 333.901 75.7684 333.095 79.5811C330.022 94.1523 330.8 109.275 335.352 123.452L339.604 136.676C339.74 137.099 339.778 137.549 339.713 137.989C339.649 138.43 339.484 138.85 339.232 139.216C338.98 139.583 338.647 139.887 338.26 140.104C337.872 140.322 337.439 140.447 336.995 140.471L315.256 141.642L309.693 132.018V141.941L283.271 143.364C283.219 143.367 283.166 143.368 283.114 143.368C282.713 143.368 282.317 143.285 281.95 143.124C281.582 142.962 281.253 142.727 280.981 142.432C280.709 142.136 280.501 141.788 280.37 141.409C280.239 141.029 280.188 140.626 280.221 140.226L283.207 103.138L279.461 77.9482C278.855 73.9235 279.158 69.8138 280.348 65.922C281.539 62.0302 283.586 58.4555 286.339 55.4614Z" fill="#1D564F"/>
<path d="M314.693 42.4244C313.225 43.2701 307.424 43.8309 307.011 42.1864L307.002 42.1503C306.714 40.9454 306.953 39.6873 307.036 38.4512C307.118 37.2152 306.998 35.8573 306.157 34.9485C304.59 33.2543 301.802 34.1524 299.537 33.7241C298.209 33.4274 297.036 32.6565 296.235 31.5557C295.434 30.4549 295.062 29.0996 295.187 27.7435C295.219 27.4866 295.27 27.2294 295.326 26.9723C295.468 26.321 295.457 25.6457 295.294 24.9994C295.132 24.353 294.822 23.7533 294.388 23.2472C293.955 22.7411 293.411 22.3424 292.798 22.0824C292.185 21.8225 291.52 21.7084 290.856 21.749C288.566 21.8802 286.095 22.575 284.2 20.8764C282.735 19.5629 282.378 16.1437 283.021 14.2829C284.103 11.1557 291.033 9.51851 294.058 8.61853C297.8 7.53571 301.736 7.30161 305.58 7.93326C309.423 8.5649 313.078 10.0464 316.278 12.2701C318.189 13.6191 319.974 15.3142 320.789 17.5092C321.603 19.7041 321.21 22.4732 319.374 23.9222C320.797 25.4318 321.8 27.2897 322.281 29.3096C322.762 31.3295 322.704 33.4406 322.114 35.4312C321.207 38.3588 316.877 41.1656 314.693 42.4244Z" fill="#2F2E41"/>
<path d="M171.667 89.1951H29.0414C28.8702 89.1951 28.7061 89.127 28.585 89.0058C28.464 88.8846 28.396 88.7202 28.396 88.5488C28.396 88.3774 28.464 88.213 28.585 88.0918C28.7061 87.9705 28.8702 87.9024 29.0414 87.9024H171.667C171.838 87.9024 172.002 87.9705 172.123 88.0918C172.244 88.213 172.312 88.3774 172.312 88.5488C172.312 88.7202 172.244 88.8846 172.123 89.0058C172.002 89.127 171.838 89.1951 171.667 89.1951Z" fill="#E6E6E6"/>
<path d="M140.43 89.1951H59.3734C59.2022 89.1951 59.0381 89.127 58.9171 89.0058C58.796 88.8846 58.728 88.7202 58.728 88.5488C58.728 88.3774 58.796 88.213 58.9171 88.0918C59.0381 87.9705 59.2022 87.9024 59.3734 87.9024H140.43C140.601 87.9024 140.766 87.9705 140.887 88.0918C141.008 88.213 141.076 88.3774 141.076 88.5488C141.076 88.7202 141.008 88.8846 140.887 89.0058C140.766 89.127 140.601 89.1951 140.43 89.1951Z" fill="#3F3D56"/>
<path d="M100.677 89.1951C100.506 89.1951 100.342 89.127 100.221 89.0058C100.1 88.8846 100.032 88.7202 100.032 88.5488V47.8293C100.032 47.6578 100.1 47.4935 100.221 47.3722C100.342 47.251 100.506 47.1829 100.677 47.1829C100.848 47.1829 101.012 47.251 101.133 47.3722C101.254 47.4935 101.322 47.6578 101.322 47.8293V88.5488C101.322 88.7202 101.254 88.8846 101.133 89.0058C101.012 89.127 100.848 89.1951 100.677 89.1951Z" fill="#3F3D56"/>
<path d="M141.335 89.1951C141.164 89.1951 141 89.127 140.878 89.0058C140.757 88.8846 140.689 88.7202 140.689 88.5488V7.10975C140.689 6.93833 140.757 6.77393 140.878 6.65272C141 6.53151 141.164 6.46341 141.335 6.46341C141.506 6.46341 141.67 6.53151 141.791 6.65272C141.912 6.77393 141.98 6.93833 141.98 7.10975V88.5488C141.98 88.7202 141.912 88.8846 141.791 89.0058C141.67 89.127 141.506 89.1951 141.335 89.1951Z" fill="#3F3D56"/>
<path d="M7.09902 14.2195C11.0197 14.2195 14.198 11.0364 14.198 7.10976C14.198 3.18315 11.0197 0 7.09902 0C3.17834 0 0 3.18315 0 7.10976C0 11.0364 3.17834 14.2195 7.09902 14.2195Z" fill="#E6E6E6"/>
<path d="M7.09902 54.939C11.0197 54.939 14.198 51.7559 14.198 47.8293C14.198 43.9027 11.0197 40.7195 7.09902 40.7195C3.17834 40.7195 0 43.9027 0 47.8293C0 51.7559 3.17834 54.939 7.09902 54.939Z" fill="#E6E6E6"/>
<path d="M7.09902 95.6585C11.0197 95.6585 14.198 92.4754 14.198 88.5488C14.198 84.6222 11.0197 81.439 7.09902 81.439C3.17834 81.439 0 84.6222 0 88.5488C0 92.4754 3.17834 95.6585 7.09902 95.6585Z" fill="#E6E6E6"/>
<path d="M171.667 7.75609H29.0414C28.8702 7.75609 28.7061 7.68799 28.585 7.56677C28.464 7.44556 28.396 7.28117 28.396 7.10975C28.396 6.93833 28.464 6.77393 28.585 6.65272C28.7061 6.53151 28.8702 6.46341 29.0414 6.46341H171.667C171.838 6.46341 172.002 6.53151 172.123 6.65272C172.244 6.77393 172.312 6.93833 172.312 7.10975C172.312 7.28117 172.244 7.44556 172.123 7.56677C172.002 7.68799 171.838 7.75609 171.667 7.75609Z" fill="#E6E6E6"/>
<path d="M171.667 48.4756H29.0414C28.8702 48.4756 28.7061 48.4075 28.585 48.2863C28.464 48.1651 28.396 48.0007 28.396 47.8293C28.396 47.6578 28.464 47.4935 28.585 47.3722C28.7061 47.251 28.8702 47.1829 29.0414 47.1829H171.667C171.838 47.1829 172.002 47.251 172.123 47.3722C172.244 47.4935 172.312 47.6578 172.312 47.8293C172.312 48.0007 172.244 48.1651 172.123 48.2863C172.002 48.4075 171.838 48.4756 171.667 48.4756Z" fill="#E6E6E6"/>
<path d="M59.6962 95.6585C63.6169 95.6585 66.7952 92.4754 66.7952 88.5488C66.7952 84.6222 63.6169 81.439 59.6962 81.439C55.7755 81.439 52.5972 84.6222 52.5972 88.5488C52.5972 92.4754 55.7755 95.6585 59.6962 95.6585Z" fill="#1D564F"/>
<path d="M100.677 54.939C104.598 54.939 107.776 51.7559 107.776 47.8293C107.776 43.9027 104.598 40.7195 100.677 40.7195C96.7565 40.7195 93.5781 43.9027 93.5781 47.8293C93.5781 51.7559 96.7565 54.939 100.677 54.939Z" fill="#1D564F"/>
<path d="M100.677 95.6585C104.598 95.6585 107.776 92.4754 107.776 88.5488C107.776 84.6222 104.598 81.439 100.677 81.439C96.7565 81.439 93.5781 84.6222 93.5781 88.5488C93.5781 92.4754 96.7565 95.6585 100.677 95.6585Z" fill="#1D564F"/>
<path d="M141.335 14.2195C145.256 14.2195 148.434 11.0364 148.434 7.10976C148.434 3.18315 145.256 0 141.335 0C137.414 0 134.236 3.18315 134.236 7.10976C134.236 11.0364 137.414 14.2195 141.335 14.2195Z" fill="#1D564F"/>
<path d="M141.335 54.939C145.256 54.939 148.434 51.7559 148.434 47.8293C148.434 43.9027 145.256 40.7195 141.335 40.7195C137.414 40.7195 134.236 43.9027 134.236 47.8293C134.236 51.7559 137.414 54.939 141.335 54.939Z" fill="#1D564F"/>
<path d="M141.335 95.6585C145.256 95.6585 148.434 92.4754 148.434 88.5488C148.434 84.6222 145.256 81.439 141.335 81.439C137.414 81.439 134.236 84.6222 134.236 88.5488C134.236 92.4754 137.414 95.6585 141.335 95.6585Z" fill="#1D564F"/>
<path d="M449.355 265H166.039C165.868 265 165.704 264.932 165.583 264.811C165.462 264.689 165.394 264.525 165.394 264.354C165.394 264.182 165.462 264.018 165.583 263.897C165.704 263.775 165.868 263.707 166.039 263.707H449.355C449.526 263.707 449.69 263.775 449.811 263.897C449.932 264.018 450 264.182 450 264.354C450 264.525 449.932 264.689 449.811 264.811C449.69 264.932 449.526 265 449.355 265Z" fill="#3F3D56"/>
<path d="M209.744 207.51C209.316 207.488 208.886 207.476 208.453 207.476C201.949 207.476 195.711 210.063 191.112 214.669C186.513 219.275 183.929 225.523 183.929 232.037H209.744V207.51Z" fill="#1D564F"/>
<path d="M214.907 265C208.234 264.992 201.836 262.334 197.118 257.609C192.399 252.883 189.745 246.476 189.737 239.793C189.737 239.621 189.805 239.457 189.926 239.336C190.047 239.214 190.212 239.146 190.383 239.146H215.552V215.266C215.552 215.178 215.57 215.091 215.604 215.011C215.639 214.93 215.689 214.857 215.753 214.797C215.816 214.736 215.891 214.689 215.973 214.658C216.056 214.628 216.143 214.615 216.231 214.62C222.782 214.966 228.94 217.86 233.392 222.686C237.845 227.512 240.24 233.888 240.067 240.456C239.894 247.024 237.168 253.265 232.468 257.85C227.769 262.435 221.467 265 214.907 265ZM191.037 240.439C191.162 245.057 192.619 249.54 195.234 253.346C197.848 257.152 201.507 260.118 205.769 261.886C210.03 263.654 214.712 264.148 219.248 263.308C223.784 262.468 227.98 260.331 231.328 257.153C234.677 253.976 237.035 249.896 238.118 245.405C239.201 240.915 238.962 236.206 237.429 231.849C235.897 227.491 233.138 223.671 229.484 220.851C225.831 218.031 221.44 216.331 216.843 215.956V239.793C216.843 239.964 216.775 240.128 216.654 240.25C216.533 240.371 216.368 240.439 216.197 240.439H191.037Z" fill="#3F3D56"/>
</g>
<defs>
<clipPath id="clip0_374_383">
<rect width="450" height="265" fill="white"/>
</clipPath>
</defs>
</svg>
