<svg width="450" height="323" viewBox="0 0 450 323" fill="none" xmlns="http://www.w3.org/2000/svg">
<g opacity="0.35" clip-path="url(#clip0_374_416)">
<path d="M119.842 0.186707H449.859V211.387H119.842V0.186707Z" fill="#E6E6E6"/>
<path d="M129.279 26.6764H440.422V198.893H129.279V26.6764Z" fill="white"/>
<path d="M119.983 0H450V14.0098H119.983V0Z" fill="#1D564F"/>
<path d="M439.581 9.7598C438.146 9.7598 436.982 8.59715 436.982 7.16295C436.982 5.72875 438.146 4.5661 439.581 4.5661C441.016 4.5661 442.18 5.72875 442.18 7.16295C442.18 8.59715 441.016 9.7598 439.581 9.7598Z" fill="white"/>
<path d="M429.718 9.7598C428.282 9.7598 427.119 8.59715 427.119 7.16295C427.119 5.72875 428.282 4.5661 429.718 4.5661C431.153 4.5661 432.316 5.72875 432.316 7.16295C432.316 8.59715 431.153 9.7598 429.718 9.7598Z" fill="white"/>
<path d="M419.854 9.7598C418.419 9.7598 417.256 8.59715 417.256 7.16295C417.256 5.72875 418.419 4.5661 419.854 4.5661C421.29 4.5661 422.453 5.72875 422.453 7.16295C422.453 8.59715 421.29 9.7598 419.854 9.7598Z" fill="white"/>
<path d="M341.285 40.8417H402.14V106.815H341.285V40.8417Z" fill="#E6E6E6"/>
<path d="M254.424 40.8417H315.279V106.815H254.424V40.8417Z" fill="#E6E6E6"/>
<path d="M167.563 40.8417H228.418V106.815H167.563V40.8417Z" fill="#E6E6E6"/>
<path d="M341.285 118.756H402.14V184.73H341.285V118.756Z" fill="#E6E6E6"/>
<path d="M254.424 118.756H315.279V184.73H254.424V118.756Z" fill="#E6E6E6"/>
<path d="M167.563 118.756H228.418V184.73H167.563V118.756Z" fill="#E6E6E6"/>
<path d="M300.57 135.712L289.451 131.319L288.158 153.282C288.158 153.282 285.831 160 286.607 162.584C286.607 162.584 286.09 166.977 287.383 167.235C288.676 167.494 292.297 168.011 292.553 167.752C292.809 167.493 292.811 166.718 292.811 166.718C292.811 166.718 295.397 168.527 295.656 170.594C295.656 170.594 306.516 173.953 306.775 170.852C307.033 167.751 301.345 165.167 301.345 165.167L296.949 158.449L300.57 135.712Z" fill="white"/>
<path d="M277.038 135.712L265.921 131.319L264.628 153.282C264.628 153.282 262.301 160 263.077 162.584C263.077 162.584 262.56 166.977 263.853 167.235C265.146 167.494 268.767 168.011 269.023 167.752C269.278 167.493 269.281 166.718 269.281 166.718C269.281 166.718 271.867 168.527 272.125 170.594C272.125 170.594 282.986 173.953 283.244 170.852C283.503 167.751 277.814 165.167 277.814 165.167L273.418 158.449L277.038 135.712Z" fill="white"/>
<path d="M275.952 50.8987C275.952 50.8987 278.32 57.5092 275.576 60.4902L277.863 68.3432C277.863 68.3432 269.738 92.7015 272.059 96.1039C272.059 96.1039 280.726 100.434 298.062 94.5572L291.021 67.2603L292.027 55.7384L290.634 50.3253L287.538 50.0184C287.538 50.0184 289.395 56.9778 285.99 58.0606C282.586 59.1434 279.264 50.1923 279.264 50.1923L275.952 50.8987Z" fill="#3F3D56"/>
<path d="M385.289 93.571L382.301 94.7925L368.041 76.0652L363.56 98.0491L360.572 97.5065C358.655 78.5531 357.091 59.2212 359.01 50.0777L370.078 49.6026L375.103 65.6179L377.548 76.4744L385.289 93.571Z" fill="white"/>
<path d="M203.954 49.9279C203.954 49.9279 208.032 55.5921 207.833 57.878C207.634 60.1639 205.048 97.4302 205.048 97.4302L198.981 97.7284L200.773 70.8965L199.281 63.642L195.602 97.4302L188.143 97.6292L194.806 53.804L196.099 49.9284L203.954 49.9279Z" fill="white"/>
<path d="M180.909 141.181C181.991 139.883 183.852 139.181 185.639 138.802C185.588 138.64 191.074 137.507 191.167 137.74L193.236 136.093L199.592 139.391L203.163 136.961L204.822 137.55C204.755 137.257 209.972 138.16 209.972 138.16C210.969 138.196 212.242 138.259 213.667 138.368C218.657 138.752 219.042 151.667 219.042 151.667C216.745 150.728 214.297 150.216 211.817 150.155L210.469 165.603C203.531 165.008 196.256 165.7 188.714 167.393L185.178 155.25L176.942 152.05C176.942 152.05 178.349 144.25 180.909 141.181Z" fill="#3F3D56"/>
<path d="M357.637 133.826C358.53 132.756 360.063 132.178 361.535 131.865C361.491 131.731 366.014 130.798 366.091 130.99L367.795 129.634L373.031 132.351L375.974 130.349L377.341 130.834C377.285 130.593 381.584 131.337 381.584 131.337C382.403 131.367 383.455 131.418 384.628 131.508C388.74 131.825 389.057 142.465 389.057 142.465C387.165 141.692 385.148 141.27 383.104 141.22L381.993 172.377C376.277 171.887 370.282 172.457 364.07 173.852L361.156 145.418L354.37 142.781C354.37 142.781 355.529 136.355 357.637 133.826Z" fill="white"/>
<path d="M66.377 142.119H37.2002V126.518C37.2002 122.652 38.7372 118.944 41.4731 116.21C44.2089 113.477 47.9195 111.941 51.7886 111.941C55.6577 111.941 59.3683 113.477 62.1041 116.21C64.84 118.944 66.377 122.652 66.377 126.518V142.119Z" fill="#2F2E41"/>
<path d="M79.4018 315.691H85.6769L88.6626 291.501H79.4008L79.4018 315.691Z" fill="#FFB6B6"/>
<path d="M77.8013 313.643H90.1605C92.2491 313.644 94.2522 314.473 95.7291 315.948C97.206 317.424 98.0359 319.426 98.0361 321.513V321.769H77.8013V313.643Z" fill="#2F2E41"/>
<path d="M4.38454 307.322L9.84928 310.405L24.3496 290.809L16.284 286.26L4.38454 307.322Z" fill="#FFB6B6"/>
<path d="M3.99833 304.753L14.7604 310.823C16.5793 311.849 17.9158 313.555 18.4758 315.566C19.0358 317.577 18.7735 319.727 17.7467 321.545L17.6208 321.768L7.05719e-05 311.828L3.99833 304.753Z" fill="#2F2E41"/>
<path d="M44.4921 206.911L44.0079 209.331C44.0079 209.331 42.5552 210.782 43.2815 211.508C44.0079 212.234 43.7658 215.621 43.7658 215.621C43.3593 221.798 35.2825 256.508 33.838 263.287C33.838 263.287 22.6996 270.546 13.983 284.821C5.26628 299.096 5.02519 302.726 5.02519 302.726L14.7088 306.84L38.9204 277.563C38.9204 277.563 45.7001 273.449 48.1218 269.82C50.5434 266.191 65.5582 228.687 65.5582 228.687L74.0348 267.884C74.0348 267.884 73.5506 282.16 75.7296 291.354C77.0695 297.157 77.8799 303.068 78.1508 309.017L89.5312 307.807C89.5312 307.807 88.8049 273.449 87.5943 269.82C87.5943 269.82 92.6793 227.961 82.5094 211.266L74.3133 189.432L66.2861 186.345L44.4921 206.911Z" fill="#2F2E41"/>
<path d="M51.6383 115.754C66.9161 116.015 66.9136 138.724 51.6383 138.982C36.3614 138.722 36.3635 116.013 51.6383 115.754Z" fill="#FFB8B8"/>
<path d="M63.3965 126.766H60.7998L60.0929 124.999L60.4466 126.766H46.2447L46.7053 123.069L43.2533 126.766H39.8099V124.763C39.8088 123.215 40.1127 121.683 40.7044 120.253C41.296 118.823 42.1637 117.523 43.258 116.428C44.3522 115.333 45.6516 114.464 47.0819 113.871C48.5122 113.278 50.0455 112.972 51.5941 112.971C53.1427 112.97 54.6764 113.273 56.1075 113.865C57.5387 114.456 58.8393 115.323 59.9351 116.416C61.0309 117.51 61.9005 118.808 62.4941 120.237C63.0878 121.667 63.3939 123.199 63.395 124.746V124.763L63.3965 126.766Z" fill="#2F2E41"/>
<path d="M67.3928 145.764L38.5232 145.998L44.6227 207.846C44.6227 207.846 78.3853 206.065 78.4062 195.767L75.2434 186.616L67.3928 145.764Z" fill="#3F3D56"/>
<path d="M37.2824 213.825C37.7262 213.281 38.0454 212.648 38.2175 211.968C38.3897 211.288 38.4106 210.579 38.2789 209.891C38.1471 209.202 37.8658 208.55 37.4549 207.982C37.0439 207.414 36.5133 206.942 35.9004 206.601L37.155 195.713L30.7192 193.337L29.1636 208.739C28.6614 209.805 28.5676 211.019 28.8999 212.15C29.2322 213.281 29.9676 214.251 30.9672 214.878C31.9667 215.504 33.1611 215.742 34.3247 215.548C35.4883 215.354 36.5405 214.741 37.2824 213.825Z" fill="#FFB6B6"/>
<path d="M42.3192 151.326L38.5206 146.02C38.5206 146.02 35.9208 145.444 32.8496 149.024C29.7784 152.604 27.9868 197.36 27.9868 197.36L39.248 199.918L45.9023 168.205L42.3192 151.326Z" fill="#3F3D56"/>
<path d="M105.953 199.86L105.115 239.622L79.3552 253.225L32.4431 244.854L31.2909 203.523L61.0302 193.058L105.953 199.86Z" fill="white"/>
<path d="M79.4222 253.655L105.521 239.873L106.372 199.508L60.99 192.637L60.8933 192.671L30.8712 203.234L32.0407 245.2L79.4222 253.655ZM104.709 239.372L79.288 252.796L32.8446 244.508L31.7104 203.811L61.0697 193.48L105.534 200.212L104.709 239.372Z" fill="#CACACA"/>
<path d="M79.9299 210.641L80.0307 210.601L106.104 200.242L105.801 199.478L79.8275 209.797L31.347 203.115L31.2344 203.93L79.9299 210.641Z" fill="#CACACA"/>
<path d="M79.4673 210.214L80.29 210.224L79.7665 253.23L78.9438 253.22L79.4673 210.214Z" fill="#CACACA"/>
<path d="M83.225 208.583L92.624 204.775L47.3771 197.571L37.978 201.378L83.225 208.583Z" fill="#CACACA"/>
<path d="M105.79 211.395L106.115 212.15L95.2142 216.84L94.8889 216.085L105.79 211.395Z" fill="#CACACA"/>
<path d="M100.854 224.96L101.179 225.715L90.2782 230.405L89.9528 229.65L100.854 224.96Z" fill="#1D564F"/>
<path d="M249.277 255.102L248.439 294.864L222.679 308.467L175.767 300.096L174.615 258.764L204.354 248.3L249.277 255.102Z" fill="white"/>
<path d="M222.746 308.896L248.845 295.114L249.696 254.749L204.314 247.878L204.218 247.912L174.195 258.476L175.365 300.441L222.746 308.896ZM248.033 294.613L222.612 308.037L176.169 299.75L175.035 259.052L204.394 248.722L248.858 255.454L248.033 294.613Z" fill="#CACACA"/>
<path d="M223.254 265.882L223.355 265.842L249.429 255.483L249.125 254.719L223.152 265.038L174.671 258.357L174.559 259.171L223.254 265.882Z" fill="#CACACA"/>
<path d="M222.792 265.455L223.614 265.465L223.091 308.471L222.268 308.461L222.792 265.455Z" fill="#CACACA"/>
<path d="M228.826 262.888L235.948 260.016L190.701 252.812L183.58 255.684L228.826 262.888Z" fill="#CACACA"/>
<path d="M249.115 266.636L249.44 267.391L238.539 272.081L238.214 271.326L249.115 266.636Z" fill="#CACACA"/>
<path d="M244.178 280.201L244.503 280.956L233.602 285.646L233.277 284.891L244.178 280.201Z" fill="#1D564F"/>
<path d="M204.525 260.553L203.552 306.711L173.649 322.502L119.192 312.784L117.855 264.805L152.377 252.658L204.525 260.553Z" fill="#1D564F"/>
<path d="M173.727 323L204.024 307.001L205.011 260.144L152.331 252.168L152.218 252.208L117.368 264.47L118.725 313.185L173.727 323ZM203.081 306.42L173.572 322.003L119.658 312.383L118.342 265.139L152.423 253.147L204.039 260.962L203.081 306.42Z" fill="#3F3D56"/>
<path d="M174.317 273.068L174.434 273.022L204.702 260.997L204.349 260.11L174.198 272.088L117.92 264.332L117.79 265.277L174.317 273.068Z" fill="#3F3D56"/>
<path d="M173.78 272.572L174.735 272.584L174.127 322.507L173.172 322.496L173.78 272.572Z" fill="#3F3D56"/>
<path d="M180.3 269.614L189.052 266.259L136.528 257.896L127.775 261.251L180.3 269.614Z" fill="#3F3D56"/>
<path d="M204.336 273.943L204.714 274.819L192.06 280.264L191.682 279.387L204.336 273.943Z" fill="#3F3D56"/>
<path d="M198.606 289.689L198.983 290.566L186.329 296.01L185.951 295.134L198.606 289.689Z" fill="white"/>
<path d="M91.3471 206.435C90.712 206.137 90.15 205.704 89.7006 205.165C89.2512 204.627 88.9254 203.997 88.7462 203.319C88.567 202.641 88.5386 201.932 88.6631 201.242C88.7877 200.552 89.062 199.898 89.467 199.325L83.6204 190.052L88.3931 185.127L96.4658 198.339C97.383 199.082 97.9952 200.137 98.1867 201.301C98.3781 202.466 98.1354 203.66 97.5046 204.658C96.8737 205.656 95.8985 206.388 94.7637 206.716C93.6289 207.043 92.4132 206.944 91.3471 206.436V206.435Z" fill="#FFB6B6"/>
<path d="M62.9561 148.202L67.1447 145.444C67.1447 145.444 70.3772 146.168 73.8149 152.775C77.2527 159.383 91.1162 188.924 91.1162 188.924L85.4175 194.703L70.2149 171.528L62.9561 148.202Z" fill="#3F3D56"/>
</g>
<defs>
<clipPath id="clip0_374_416">
<rect width="450" height="323" fill="white" transform="matrix(-1 0 0 1 450 0)"/>
</clipPath>
</defs>
</svg>
